<svg width="32" height="32" viewBox="0 0 36 36" fill="none" xmlns="http://www.w3.org/2000/svg">
  <!-- Book left page -->
  <path d="M4 8 C4 7 5 6 6 6.5 L17 10 L17 28 L6 24.5 C5 24 4 23 4 22 Z" fill="#C1694F"/>
  <!-- Book right page -->
  <path d="M19 10 L30 6.5 C31 6 32 7 32 8 L32 22 C32 23 31 24 30 24.5 L19 28 Z" fill="#A85640"/>
  <!-- Spine -->
  <rect x="17" y="9" width="2" height="20" rx="1" fill="#FFF3EB"/>
  <!-- Speech bubble -->
  <ellipse cx="27" cy="8" rx="6" ry="5" fill="#FFF9F5"/>
  <path d="M24 12 L23 16 L28 13" fill="#FFF9F5"/>
  <!-- Bubble dots -->
  <circle cx="24.5" cy="8" r="1" fill="#C1694F"/>
  <circle cx="27" cy="8" r="1" fill="#C1694F"/>
  <circle cx="29.5" cy="8" r="1" fill="#C1694F"/>
</svg>
